<svg width="9" height="25" viewBox="0 0 9 25" fill="none" xmlns="http://www.w3.org/2000/svg">
<path d="M5.47595 8.97721C5.47595 10.1241 5.47595 11.5215 3.8962 12.0911C5.51393 12.6456 5.47595 13.8228 5.47595 15.0532V19.6101C5.47595 20.4759 5.82532 21 6.4481 21.1291C6.58495 21.1753 6.72912 21.1959 6.87342 21.1899H8.39241V24.2278H5.88608C3.21266 24.2278 1.73924 22.7089 1.73924 19.8911V14.4987C1.72028 14.2219 1.59821 13.9622 1.39714 13.771C1.19607 13.5798 0.930606 13.4709 0.653165 13.4658H0V10.8H0.653165C0.936141 10.7963 1.20682 10.6837 1.40904 10.4858C1.61126 10.2878 1.72951 10.0195 1.73924 9.73671V4.26835C1.73924 1.4962 3.18228 0 5.88608 0H8.41519V2.9924H6.8962C6.75173 2.99282 6.60822 3.01589 6.47089 3.06076C5.8481 3.22025 5.49873 3.73671 5.49873 4.57975L5.47595 8.97721Z" fill="#232536"/>
</svg>
