<svg width="490" height="215" viewBox="0 0 490 215" fill="none" xmlns="http://www.w3.org/2000/svg">
<rect x="442" y="213" width="8" height="2" fill="#DADADD"/>
<rect x="452" y="213" width="8" height="2" fill="#DADADD"/>
<rect x="462" y="213" width="8" height="2" fill="#DADADD"/>
<rect x="472" y="213" width="8" height="2" fill="#DADADD"/>
<rect x="482" y="213" width="8" height="2" fill="#DADADD"/>
<rect y="213" width="8" height="2" fill="#DADADD"/>
<rect x="10" y="213" width="8" height="2" fill="#DADADD"/>
<rect x="20" y="213" width="8" height="2" fill="#DADADD"/>
<rect x="30" y="213" width="8" height="2" fill="#DADADD"/>
<rect x="40" y="213" width="8" height="2" fill="#DADADD"/>
<rect x="442" width="8" height="2" fill="#DADADD"/>
<rect x="452" width="8" height="2" fill="#DADADD"/>
<rect x="462" width="8" height="2" fill="#DADADD"/>
<rect x="472" width="8" height="2" fill="#DADADD"/>
<rect x="482" width="8" height="2" fill="#DADADD"/>
<rect width="8" height="2" fill="#DADADD"/>
<rect x="10" width="8" height="2" fill="#DADADD"/>
<rect x="20" width="8" height="2" fill="#DADADD"/>
<rect x="30" width="8" height="2" fill="#DADADD"/>
<rect x="40" width="8" height="2" fill="#DADADD"/>
</svg>
